HIERARCHY
ROOT joint_Root
{
	OFFSET 0.0 0.0 0.0
	CHANNELS 6 Xposition Yposition Zposition Zrotation Xrotation Yrotation 
	JOINT Hips
	{
		OFFSET 4.5925 91.4895 -427.239
		CHANNELS 6 Xposition Yposition Zposition Zrotation Xrotation Yrotation 
		JOINT Spine
		{
			OFFSET 15.7357 0.0 0.0
			CHANNELS 6 Xposition Yposition Zposition Zrotation Xrotation Yrotation 
			JOINT Chest
			{
				OFFSET 8.98455 -0.406207 0.0
				CHANNELS 6 Xposition Yposition Zposition Zrotation Xrotation Yrotation 
				JOINT Neck
				{
					OFFSET 16.3773 0.0 0.0
					CHANNELS 6 Xposition Yposition Zposition Zrotation Xrotation Yrotation 
					JOINT Head
					{
						OFFSET 6.45672 0.0 0.0
						CHANNELS 6 Xposition Yposition Zposition Zrotation Xrotation Yrotation 
						End Site
						{
							OFFSET 0.0 0.0 0.0
						}
					}
				}
				JOINT Shoulder_L
				{
					OFFSET 12.9942 -0.242716 4.98039
					CHANNELS 6 Xposition Yposition Zposition Zrotation Xrotation Yrotation 
					JOINT UpperArm_L
					{
						OFFSET 5.34809 0.0 0.0
						CHANNELS 6 Xposition Yposition Zposition Zrotation Xrotation Yrotation 
						JOINT LowerArm_L
						{
							OFFSET 24.3286 1.87007e-05 0.0
							CHANNELS 6 Xposition Yposition Zposition Zrotation Xrotation Yrotation 
							JOINT Hand_L
							{
								OFFSET 22.2916 0.0 0.0
								CHANNELS 6 Xposition Yposition Zposition Zrotation Xrotation Yrotation 
								End Site
								{
									OFFSET 0.0 0.0 0.0
								}
							}
						}
					}
				}
				JOINT Shoulder_R
				{
					OFFSET 12.9945 -0.242716 -4.98039
					CHANNELS 6 Xposition Yposition Zposition Zrotation Xrotation Yrotation 
					JOINT UpperArm_R
					{
						OFFSET -5.34813 0.0 0.0
						CHANNELS 6 Xposition Yposition Zposition Zrotation Xrotation Yrotation 
						JOINT LowerArm_R
						{
							OFFSET -24.3289 0.000322201 0.0
							CHANNELS 6 Xposition Yposition Zposition Zrotation Xrotation Yrotation 
							JOINT Hand_R
							{
								OFFSET -22.2915 -0.000108084 0.0
								CHANNELS 6 Xposition Yposition Zposition Zrotation Xrotation Yrotation 
								End Site
								{
									OFFSET 0.0 0.0 0.0
								}
							}
						}
					}
				}
			}
		}
		JOINT UpperLeg_L
		{
			OFFSET -2.19248 -6.46944 0.0
			CHANNELS 6 Xposition Yposition Zposition Zrotation Xrotation Yrotation 
			JOINT LowerLeg_L
			{
				OFFSET 39.0811 0.0 -1.23785e-05
				CHANNELS 6 Xposition Yposition Zposition Zrotation Xrotation Yrotation 
				JOINT Foot_L
				{
					OFFSET 40.9854 0.0 -1.26872e-05
					CHANNELS 6 Xposition Yposition Zposition Zrotation Xrotation Yrotation 
					JOINT Toes_L
					{
						OFFSET 11.7543 0.0 0.0
						CHANNELS 6 Xposition Yposition Zposition Zrotation Xrotation Yrotation 
						End Site
						{
							OFFSET 0.0 0.0 0.0
						}
					}
				}
			}
		}
		JOINT UpperLeg_R
		{
			OFFSET -2.19251 6.46944 0.0
			CHANNELS 6 Xposition Yposition Zposition Zrotation Xrotation Yrotation 
			JOINT LowerLeg_R
			{
				OFFSET -39.0811 -0.00228153 -0.0401928
				CHANNELS 6 Xposition Yposition Zposition Zrotation Xrotation Yrotation 
				JOINT Foot_R
				{
					OFFSET -40.9854 0.0 0.0
					CHANNELS 6 Xposition Yposition Zposition Zrotation Xrotation Yrotation 
					JOINT Toes_R
					{
						OFFSET -11.7543 0.0 0.0
						CHANNELS 6 Xposition Yposition Zposition Zrotation Xrotation Yrotation 
						End Site
						{
							OFFSET 0.0 0.0 0.0
						}
					}
				}
			}
		}
	}
}
MOTION
Frames:	4
Frame Time:	0.0333333
0.000000 0.000000 0.000000 0.000000 0.000000 -0.000000 -1.347860 90.737700 -1.843360 89.901200 -2.052590 10.397400 15.735700 0.000005 -0.000001 86.796100 78.551000 -87.180600 8.984550 -0.406207 -0.000000 15.094600 -1.287280 -0.598943 16.377300 -0.000001 -0.000001 7.584980 -3.877800 2.263380 6.456720 -0.000001 -0.000000 -4.823930 -3.085780 0.920788 12.994200 -0.242716 4.980390 -91.342700 6.459540 -78.231200 5.348090 -0.000007 -0.000001 -57.942600 36.822100 -26.903100 24.328600 0.000019 0.000005 9.895500 22.333600 -24.658500 22.291600 -0.000001 0.000005 10.749200 5.286410 0.450194 12.994500 -0.242716 -4.980390 89.045700 11.065300 -85.039900 -5.348130 -0.000001 -0.000004 -59.038600 33.547100 -21.380000 -24.328900 0.000322 -0.000009 3.089910 6.843050 -24.380300 -22.291500 -0.000108 -0.000004 14.103700 5.419820 -3.592870 -2.192480 -6.469440 -0.000000 -175.215000 -12.763500 -1.999470 39.081100 -0.000007 -0.000012 -0.176389 0.284275 31.819300 40.985400 -0.000006 -0.000013 0.737466 6.095380 -69.245500 11.754300 -0.000000 0.000003 -0.000186 -0.001742 -16.643400 -2.192510 6.469440 -0.000001 174.193000 21.338400 179.914000 -39.081100 -0.002282 -0.040193 -0.209244 0.349075 31.336500 -40.985400 0.000008 0.000006 4.580210 14.570900 -70.730700 -11.754300 -0.000006 -0.000006 -0.002583 -0.035786 -18.028300
0.000000 0.000000 0.000000 0.000000 0.000000 -0.000000 -1.356810 90.745300 -1.849770 89.886300 -2.025940 10.408500 15.735700 0.000005 -0.000001 86.768300 78.545500 -87.159300 8.984550 -0.406207 -0.000000 15.104900 -1.299300 -0.610343 16.377300 -0.000001 -0.000001 7.686400 -3.893360 2.293760 6.456720 -0.000001 -0.000000 -4.927480 -3.094360 0.933578 12.994200 -0.242716 4.980390 -91.312900 6.329990 -78.257600 5.348090 -0.000007 -0.000001 -57.783400 36.683600 -27.075100 24.328600 0.000019 0.000005 10.195800 22.108500 -25.541800 22.291600 -0.000001 0.000005 10.868700 5.288840 0.383111 12.994500 -0.242716 -4.980390 89.047100 11.010200 -85.022800 -5.348130 -0.000001 -0.000004 -58.919200 33.432500 -21.384500 -24.328900 0.000322 -0.000009 3.309010 6.958520 -25.519200 -22.291500 -0.000108 -0.000004 14.281200 5.422800 -3.693610 -2.192480 -6.469440 -0.000000 -175.189000 -12.733300 -1.978890 39.081100 -0.000007 -0.000012 -0.178613 0.288219 31.787400 40.985400 -0.000006 -0.000013 0.725110 6.106470 -69.221900 11.754300 -0.000000 0.000003 -0.000183 -0.001716 -16.642500 -2.192510 6.469440 -0.000001 174.195000 21.389900 179.960000 -39.081100 -0.002282 -0.040193 -0.211962 0.354243 31.285800 -40.985400 0.000008 0.000006 4.577620 14.567600 -70.708300 -11.754300 -0.000006 -0.000006 -0.002536 -0.035241 -18.006200
0.000000 0.000000 0.000000 0.000000 0.000000 -0.000000 -1.358980 90.740600 -1.854370 89.880800 -2.030980 10.353700 15.735700 0.000005 -0.000001 86.785300 78.557500 -87.185300 8.984550 -0.406207 -0.000000 15.081300 -1.291830 -0.629635 16.377300 -0.000001 -0.000001 7.758350 -3.901560 2.302050 6.456720 -0.000001 -0.000000 -4.996660 -3.095910 0.952772 12.994200 -0.242716 4.980390 -91.279900 6.197520 -78.307600 5.348090 -0.000007 -0.000001 -57.490400 36.519200 -27.339000 24.328600 0.000019 0.000005 10.611200 21.847100 -26.722600 22.291600 -0.000001 0.000005 10.834300 5.292120 0.292235 12.994500 -0.242716 -4.980390 89.043000 10.937900 -84.968800 -5.348130 -0.000001 -0.000004 -58.806000 33.157300 -21.431500 -24.328900 0.000322 -0.000009 3.646110 7.242310 -26.821800 -22.291500 -0.000108 -0.000004 14.535800 5.425590 -3.788220 -2.192480 -6.469440 -0.000000 -175.203000 -12.705400 -2.055340 39.081100 -0.000007 -0.000012 -0.177323 0.285793 31.818300 40.985400 -0.000006 -0.000013 0.719310 6.086360 -69.233900 11.754300 -0.000000 0.000003 -0.000188 -0.001754 -16.643900 -2.192510 6.469440 -0.000001 174.222000 21.413900 179.882000 -39.081100 -0.002282 -0.040193 -0.212783 0.355207 31.313500 -40.985400 0.000008 0.000006 4.589650 14.583200 -70.717500 -11.754300 -0.000006 -0.000006 -0.002446 -0.034172 -17.962700
0.000000 0.000000 0.000000 0.000000 0.000000 -0.000000 -1.364270 90.746900 -1.867660 89.873300 -1.991260 10.366500 15.735700 0.000005 -0.000001 86.718000 78.551900 -87.127800 8.984550 -0.406207 -0.000000 15.090900 -1.319540 -0.645282 16.377300 -0.000001 -0.000001 7.851880 -3.909590 2.313790 6.456720 -0.000001 -0.000000 -5.074180 -3.080750 0.951527 12.994200 -0.242716 4.980390 -91.252400 6.079560 -78.336900 5.348090 -0.000007 -0.000001 -57.394000 35.966700 -27.447700 24.328600 0.000019 0.000005 11.223800 21.659600 -28.263800 22.291600 -0.000001 0.000005 11.087300 5.295080 0.209949 12.994500 -0.242716 -4.980390 89.036200 10.879800 -84.906900 -5.348130 -0.000001 -0.000004 -58.770600 32.665400 -21.453500 -24.328900 0.000322 -0.000009 3.983660 7.431160 -28.305900 -22.291500 -0.000108 -0.000004 14.909100 5.428570 -3.890160 -2.192480 -6.469440 -0.000000 -175.224000 -12.626600 -2.049840 39.081100 -0.000007 -0.000012 -0.174433 0.281369 31.796900 40.985400 -0.000006 -0.000013 0.700211 5.993850 -69.210100 11.754300 -0.000000 0.000003 -0.000179 -0.001685 -16.641300 -2.192510 6.469440 -0.000001 174.222000 21.464100 179.909000 -39.081100 -0.002282 -0.040193 -0.208617 0.348815 31.280300 -40.985400 0.000008 0.000006 4.600830 14.613800 -70.697100 -11.754300 -0.000006 -0.000006 -0.002406 -0.033686 -17.942900
